

<svg version="1.1" xmlns="http://www.w3.org/2000/svg" xmlns:xlink="http://www.w3.org/1999/xlink" x="0px" y="0px" viewBox="0 0 33.84 34" enable-background="new 0 0 33.84 34" xml:space="preserve" focusable="false" role="presentation" aria-hidden="true">
<path id="HomeLoan" fill="#427730" d="M26.229,18.248v-1.916c0.52,0.285,1.195,0.398,1.934-0.36  c0.314-0.322,0.472-0.708,0.456-1.117c-0.023-0.568-0.38-1.16-1.063-1.757l-1.327-1.163V7.469c0-1.076-0.876-1.952-1.952-1.952  h-0.663c-1.076,0-1.951,0.872-1.951,1.943v0.472l-4.377-3.836c-0.2-0.175-0.53-0.175-0.73,0l-10.27,9  c-0.683,0.597-1.041,1.188-1.063,1.757c-0.016,0.408,0.142,0.795,0.456,1.117c0.415,0.426,0.811,0.577,1.17,0.577  c0.283,0,0.542-0.095,0.772-0.222v10.277c0,1.076,0.875,1.952,1.951,1.952h8.183c1.145,0.923,2.6,1.478,4.183,1.478  c3.682,0,6.677-2.995,6.677-6.677C28.613,21.309,27.685,19.474,26.229,18.248z M22.757,8.856V7.461c0-0.468,0.384-0.848,0.856-0.848  h0.663c0.472,0,0.857,0.384,0.857,0.857v3.505l-2.417-2.118H22.757z M6.461,15.207c-0.134-0.138-0.149-0.238-0.146-0.309  c0.005-0.116,0.081-0.444,0.691-0.976l9.627-8.436c0.106-0.077,0.335-0.189,0.566-0.007l9.636,8.443  c0.609,0.533,0.686,0.86,0.69,0.977c0.003,0.071-0.011,0.171-0.146,0.309c-0.364,0.374-0.498,0.316-1.089-0.174  c-0.057-0.047-0.113-0.094-0.15-0.123l-8.855-7.747c-0.104-0.091-0.232-0.135-0.36-0.135c-0.003,0-0.006,0-0.008,0  c-0.128,0-0.256,0.045-0.36,0.135l-8.837,7.731c-0.056,0.045-0.112,0.091-0.169,0.139C6.959,15.522,6.825,15.58,6.461,15.207z   M8.714,26.604V15.477l8.206-7.179l8.213,7.185v2.013c-0.95-0.521-2.04-0.817-3.197-0.817c-3.682,0-6.677,2.995-6.677,6.677  c0,1.547,0.53,2.971,1.416,4.104H9.571C9.098,27.461,8.714,27.076,8.714,26.604z M21.936,28.938c-3.078,0-5.582-2.504-5.582-5.582  c0-3.078,2.504-5.582,5.582-5.582s5.582,2.504,5.582,5.582C27.518,26.434,25.014,28.938,21.936,28.938z M24.072,23.626  c0.12,0.207,0.181,0.455,0.181,0.739c0,0.538-0.213,0.967-0.633,1.275c-0.292,0.215-0.673,0.355-1.134,0.418v1.022h-0.967v-0.996  c-0.283-0.022-0.567-0.071-0.844-0.146c-0.395-0.106-0.722-0.253-0.972-0.437l-0.04-0.029l0.491-1.106l0.059,0.038  c0.255,0.162,0.528,0.287,0.813,0.372c0.285,0.085,0.576,0.129,0.864,0.129c0.289,0,0.511-0.039,0.662-0.117  c0.14-0.072,0.207-0.168,0.207-0.295c0-0.113-0.062-0.205-0.188-0.282c-0.139-0.083-0.408-0.168-0.799-0.251  c-0.508-0.1-0.909-0.227-1.193-0.377c-0.289-0.152-0.496-0.336-0.613-0.545c-0.117-0.209-0.177-0.463-0.177-0.757  c0-0.336,0.097-0.645,0.289-0.916c0.19-0.27,0.461-0.484,0.805-0.635c0.188-0.083,0.404-0.145,0.642-0.183v-1.007h0.967v0.988  c0.244,0.026,0.48,0.073,0.701,0.139c0.369,0.109,0.662,0.255,0.873,0.435l0.034,0.029l-0.483,1.107l-0.061-0.043  c-0.229-0.161-0.474-0.286-0.727-0.371c-0.253-0.085-0.508-0.128-0.761-0.128c-0.242,0-0.438,0.046-0.583,0.137  c-0.137,0.087-0.204,0.199-0.204,0.342c0,0.075,0.022,0.136,0.066,0.184c0.049,0.053,0.144,0.107,0.285,0.161  c0.146,0.056,0.37,0.117,0.666,0.181c0.488,0.105,0.879,0.235,1.159,0.384C23.746,23.238,23.952,23.42,24.072,23.626z" />
</svg>
