

<svg version="1.1" xmlns="http://www.w3.org/2000/svg" xmlns:xlink="http://www.w3.org/1999/xlink" x="0px" y="0px" viewBox="0 0 33.84 34" enable-background="new 0 0 33.84 34" xml:space="preserve">
<path id="Corporate" fill="#427730" d="M14.243,8.807V8.092c0-0.215,0.176-0.392,0.392-0.392h0.204c0.215,0,0.392,0.176,0.392,0.392  v0.714c0,0.215-0.176,0.392-0.392,0.392h-0.204C14.419,9.198,14.243,9.022,14.243,8.807z M16.811,18.993h0.204  c0.215,0,0.392-0.176,0.392-0.392v-0.714c0-0.215-0.176-0.392-0.392-0.392h-0.204c-0.215,0-0.392,0.176-0.392,0.392v0.714  C16.42,18.817,16.596,18.993,16.811,18.993z M16.811,22.258h0.204c0.215,0,0.392-0.176,0.392-0.392v-0.714  c0-0.215-0.176-0.392-0.392-0.392h-0.204c-0.215,0-0.392,0.176-0.392,0.392v0.714C16.42,22.081,16.596,22.258,16.811,22.258z   M16.811,25.523h0.204c0.215,0,0.392-0.176,0.392-0.392v-0.714c0-0.215-0.176-0.392-0.392-0.392h-0.204  c-0.215,0-0.392,0.176-0.392,0.392v0.714C16.42,25.346,16.596,25.523,16.811,25.523z M16.811,12.463h0.204  c0.215,0,0.392-0.176,0.392-0.392v-0.714c0-0.215-0.176-0.392-0.392-0.392h-0.204c-0.215,0-0.392,0.176-0.392,0.392v0.714  C16.42,12.287,16.596,12.463,16.811,12.463z M16.811,9.198h0.204c0.215,0,0.392-0.176,0.392-0.392V8.092  c0-0.215-0.176-0.392-0.392-0.392h-0.204c-0.215,0-0.392,0.176-0.392,0.392v0.714C16.42,9.022,16.596,9.198,16.811,9.198z   M16.811,15.728h0.204c0.215,0,0.392-0.176,0.392-0.392v-0.714c0-0.215-0.176-0.392-0.392-0.392h-0.204  c-0.215,0-0.392,0.176-0.392,0.392v0.714C16.42,15.552,16.596,15.728,16.811,15.728z M8.135,16.217  c-0.207,0-0.375,0.168-0.375,0.375v9.521c0,0.207,0.168,0.375,0.375,0.375c0.207,0,0.375-0.168,0.375-0.375v-9.521  C8.51,16.385,8.342,16.217,8.135,16.217z M10.312,16.217c-0.207,0-0.375,0.168-0.375,0.375v9.521c0,0.207,0.168,0.375,0.375,0.375  c0.207,0,0.375-0.168,0.375-0.375v-9.521C10.687,16.385,10.519,16.217,10.312,16.217z M12.488,16.217  c-0.207,0-0.375,0.168-0.375,0.375v9.517c0,0.207,0.168,0.375,0.375,0.375c0.207,0,0.375-0.168,0.375-0.375v-9.517  C12.863,16.385,12.695,16.217,12.488,16.217z M14.635,12.463h0.204c0.215,0,0.392-0.176,0.392-0.392v-0.714  c0-0.215-0.176-0.392-0.392-0.392h-0.204c-0.215,0-0.392,0.176-0.392,0.392v0.714C14.243,12.287,14.419,12.463,14.635,12.463z   M12.458,9.198h0.204c0.215,0,0.392-0.176,0.392-0.392V8.092c0-0.215-0.176-0.392-0.392-0.392h-0.204  c-0.215,0-0.392,0.176-0.392,0.392v0.714C12.066,9.022,12.243,9.198,12.458,9.198z M13.054,12.072v-0.714  c0-0.215-0.176-0.392-0.392-0.392h-0.204c-0.215,0-0.392,0.176-0.392,0.392v0.714c0,0.215,0.176,0.392,0.392,0.392h0.204  C12.877,12.463,13.054,12.287,13.054,12.072z M30.289,28.456c0,0.302-0.245,0.548-0.548,0.548H4.099  c-0.302,0-0.548-0.245-0.548-0.548c0-0.302,0.245-0.548,0.548-0.548h1.569V16.122c0-1.238,1.007-2.245,2.245-2.245h1.671V7.242  c0-1.238,1.007-2.245,2.245-2.245h10.246c1.238,0,2.245,0.897,2.245,2v0.928h1.607c1.238,0,2.245,1.007,2.245,2.245v17.739h1.569  C30.044,27.909,30.289,28.154,30.289,28.456z M21.061,9.019c-0.634,0-1.15,0.516-1.15,1.15v0.328h5.014  c0.207,0,0.375,0.168,0.375,0.375c0,0.207-0.168,0.375-0.375,0.375H19.91v1.427h5.014c0.207,0,0.375,0.168,0.375,0.375  c0,0.207-0.168,0.375-0.375,0.375H19.91v1.426h5.014c0.207,0,0.375,0.168,0.375,0.375c0,0.207-0.168,0.375-0.375,0.375H19.91v1.426  h5.014c0.207,0,0.375,0.168,0.375,0.375s-0.168,0.375-0.375,0.375H19.91v1.427h5.014c0.207,0,0.375,0.168,0.375,0.375  s-0.168,0.375-0.375,0.375H19.91v1.426h5.014c0.207,0,0.375,0.168,0.375,0.375c0,0.207-0.168,0.375-0.375,0.375H19.91v1.428h5.014  c0.207,0,0.375,0.168,0.375,0.375c0,0.207-0.168,0.375-0.375,0.375H19.91v1.432h5.014c0.207,0,0.375,0.168,0.375,0.375  c0,0.207-0.168,0.375-0.375,0.375H19.91v1.417h7.167V10.17c0-0.634-0.516-1.15-1.15-1.15H21.061z M10.679,13.877h2.033  c1.238,0,2.245,1.007,2.245,2.245v11.787h3.859V10.17c0-1.238,1.007-2.245,2.245-2.245h2.165V6.997c0-0.491-0.527-0.905-1.15-0.905  H11.829c-0.634,0-1.15,0.516-1.15,1.15V13.877z M6.762,27.909h7.099V16.122c0-0.634-0.516-1.15-1.15-1.15H7.912  c-0.634,0-1.15,0.516-1.15,1.15V27.909z" />
</svg>
