

<svg version="1.1" xmlns="http://www.w3.org/2000/svg" xmlns:xlink="http://www.w3.org/1999/xlink" x="0px" y="0px" viewBox="0 0 33.84 34" enable-background="new 0 0 33.84 34" xml:space="preserve" focusable="false" role="presentation" aria-hidden="true">
<path id="Cash" fill="#427730" d="M27.924,13.501c-0.004-0.387-0.191-0.752-0.517-1.034c0.334-0.293,0.521-0.669,0.517-1.066  c-0.005-0.473-0.279-0.915-0.753-1.211l-5.307-3.324c-0.836-0.524-2.132-0.504-2.952,0.046l-4.515,3.027  c-0.359-0.141-0.805-0.106-1.117,0.11l-1.532,1.057c-0.221,0.152-0.346,0.377-0.343,0.617c0.001,0.069,0.015,0.135,0.036,0.199  l-4.809,3.224h0c-0.462,0.31-0.724,0.76-0.717,1.235c0.006,0.385,0.189,0.747,0.509,1.029c-0.331,0.295-0.515,0.674-0.509,1.072  c0.006,0.385,0.19,0.747,0.509,1.028c-0.331,0.295-0.515,0.674-0.509,1.072c0.006,0.385,0.19,0.747,0.509,1.028  c-0.331,0.295-0.515,0.674-0.509,1.072c0.007,0.474,0.281,0.916,0.752,1.213l5.141,3.235c0.409,0.257,0.929,0.385,1.449,0.385  c0.542,0,1.085-0.139,1.504-0.414l4.464-2.933c0.052,0.149,0.143,0.273,0.274,0.349c0.096,0.056,0.203,0.084,0.314,0.084  c0.128,0,0.262-0.037,0.391-0.11l1.855-1.046c0.377-0.212,0.661-0.699,0.661-1.132v-0.442l4.476-2.941  c0.467-0.306,0.731-0.754,0.726-1.227c-0.004-0.387-0.191-0.752-0.517-1.034c0.334-0.293,0.521-0.669,0.517-1.066  c-0.004-0.387-0.191-0.752-0.517-1.034C27.742,14.274,27.929,13.897,27.924,13.501z M7.242,16.056l5.047-3.384l1.126,0.734  l-3.571,2.378c-0.227,0.151-0.354,0.375-0.349,0.614c0.005,0.239,0.142,0.457,0.376,0.598l2.763,1.667  c0.181,0.109,0.405,0.163,0.629,0.163c0.246,0,0.492-0.065,0.685-0.194l3.694-2.469l1.096,0.715l-4.577,3.008  c-0.468,0.308-1.295,0.316-1.769,0.018l-4.001-2.517l-0.984-0.619l-0.156-0.098c-0.15-0.094-0.24-0.207-0.241-0.302  C7.009,16.27,7.096,16.154,7.242,16.056z M14.099,13.852l2.861,1.865l-3.428,2.291c-0.127,0.085-0.379,0.09-0.509,0.012l-2.719-1.64  L14.099,13.852z M7.242,18.156l0.154-0.103l4.413,2.777c0.409,0.257,0.929,0.385,1.449,0.385c0.542,0,1.085-0.139,1.504-0.414  l4.413-2.9v0.79l-5.014,3.295c-0.468,0.308-1.295,0.316-1.769,0.018l-4.03-2.536l-0.984-0.619l-0.127-0.08  c-0.149-0.094-0.239-0.207-0.241-0.302C7.009,18.369,7.096,18.254,7.242,18.156z M7.242,20.256l0.154-0.103l4.413,2.777  c0.409,0.257,0.929,0.385,1.449,0.385c0.542,0,1.085-0.139,1.504-0.414l4.413-2.9v0.79l-5.014,3.295  c-0.468,0.308-1.295,0.316-1.769,0.018l-4.03-2.536l-0.984-0.619l-0.127-0.08c-0.149-0.094-0.239-0.207-0.241-0.302  C7.009,20.469,7.096,20.354,7.242,20.256z M14.162,26.184c-0.468,0.308-1.295,0.317-1.769,0.018l-5.141-3.235  c-0.149-0.094-0.239-0.207-0.241-0.302c-0.001-0.096,0.085-0.211,0.232-0.309l0.154-0.103l4.413,2.777  c0.409,0.257,0.929,0.385,1.449,0.385c0.542,0,1.085-0.139,1.504-0.414l4.413-2.9v0.789L14.162,26.184z M21.693,22.79l-1.767,0.996  v-0.079v-1.31v-0.789v-1.31v-0.79v-1.31v-0.698c0-0.029-0.004-0.058-0.007-0.087l0,0l0,0c-0.022-0.264-0.137-0.543-0.309-0.767  c-0.004-0.006-0.009-0.011-0.013-0.017c-0.087-0.11-0.186-0.207-0.294-0.278l-0.983-0.641l0,0l-0.683-0.445l0,0l-2.859-1.864l0,0  l-0.684-0.446l0,0l-1.904-1.241l1.516-1.046c0.119-0.082,0.353-0.084,0.473-0.004l0.554,0.37l0,0l1.126,0.752l0.671,0.448l0,0  l2.823,1.884h0l0.385,0.257l1.394,0.931l0,0l0.557,0.372c0.032,0.021,0.064,0.053,0.094,0.089c0.011,0.013,0.021,0.027,0.031,0.041  c0.017,0.024,0.034,0.048,0.049,0.075c0.012,0.02,0.023,0.04,0.033,0.061c0.01,0.021,0.018,0.043,0.027,0.064  c0.009,0.024,0.02,0.048,0.027,0.072c0.013,0.045,0.022,0.088,0.022,0.127v0.649v1.31v0.79v1.31v0.789v1.26  C21.972,22.473,21.834,22.71,21.693,22.79z M17.208,11.782l3.106-2.068c0.125-0.083,0.373-0.087,0.501-0.007l2.654,1.659  l-3.44,2.299L17.208,11.782z M26.597,18.013l-3.875,2.546v-0.789l3.72-2.444l0.149,0.093c0.149,0.093,0.238,0.203,0.239,0.295  C26.83,17.804,26.744,17.917,26.597,18.013z M26.597,15.913l-3.875,2.546v-0.79l3.72-2.444l0.149,0.093  c0.149,0.093,0.238,0.203,0.239,0.295C26.83,15.705,26.744,15.817,26.597,15.913z M26.597,13.813l-3.875,2.546v-0.156  c0-0.178-0.049-0.369-0.13-0.548l3.85-2.53l0.149,0.093c0.149,0.093,0.238,0.203,0.239,0.295  C26.83,13.605,26.744,13.717,26.597,13.813z M26.597,11.713l-4.783,3.143l-1.11-0.741l3.215-2.149  c0.226-0.151,0.353-0.375,0.349-0.614c-0.004-0.239-0.138-0.459-0.368-0.602l-2.688-1.68c-0.378-0.236-0.943-0.228-1.314,0.019  l-3.366,2.241l-1.124-0.75l4.116-2.76c0.464-0.312,1.287-0.324,1.76-0.027l5.307,3.324c0.149,0.093,0.238,0.203,0.239,0.295  C26.83,11.505,26.744,11.617,26.597,11.713z" />
</svg>
