

<svg version="1.1" xmlns="http://www.w3.org/2000/svg" xmlns:xlink="http://www.w3.org/1999/xlink" x="0px" y="0px" viewBox="0 0 33.84 34" enable-background="new 0 0 33.84 34" xml:space="preserve" focusable="false" role="presentation" aria-hidden="true">
<path id="Check" fill="#427730" d="M30.095,23.912H3.745c-1.076,0-1.952-0.875-1.952-1.951v-9.922c0-1.076,0.876-1.951,1.952-1.951  h26.35c1.076,0,1.951,0.875,1.951,1.951v9.922C32.047,23.037,31.171,23.912,30.095,23.912z M3.745,11.183  c-0.472,0-0.856,0.384-0.856,0.856v9.922c0,0.472,0.384,0.856,0.856,0.856h26.35c0.472,0,0.856-0.384,0.856-0.856v-9.922  c0-0.472-0.384-0.856-0.856-0.856H3.745z M10.245,13.757c0-0.207-0.168-0.375-0.375-0.375h-4.8c-0.207,0-0.375,0.168-0.375,0.375  c0,0.207,0.168,0.375,0.375,0.375h4.8C10.077,14.132,10.245,13.964,10.245,13.757z M10.245,15.857c0-0.207-0.168-0.375-0.375-0.375  h-4.8c-0.207,0-0.375,0.168-0.375,0.375s0.168,0.375,0.375,0.375h4.8C10.077,16.232,10.245,16.064,10.245,15.857z M29.145,17.957  c0-0.207-0.168-0.375-0.375-0.375H5.07c-0.207,0-0.375,0.168-0.375,0.375s0.168,0.375,0.375,0.375h23.7  C28.977,18.332,29.145,18.164,29.145,17.957z M29.145,14.357c0-0.207-0.168-0.375-0.375-0.375h-4.8  c-0.207,0-0.375,0.168-0.375,0.375c0,0.207,0.168,0.375,0.375,0.375h4.8C28.977,14.732,29.145,14.564,29.145,14.357z M19.331,21.724  c0.439-0.359,0.911-0.677,1.408-0.951l0.074,0.419c0.025,0.142,0.121,0.262,0.255,0.318c0.133,0.056,0.286,0.04,0.405-0.042  l1.01-0.698c0.242-0.167,0.339-0.175,0.359-0.175c0.005,0,0.004,0,0.004,0c0.027,0.019,0.078,0.128,0.109,0.193  c0.042,0.089,0.085,0.178,0.137,0.259c0.28,0.435,0.837,0.681,1.426,0.624c0.489-0.047,0.912-0.275,1.262-0.491l0.101-0.063  c0.362-0.226,0.734-0.461,1.063-0.408c0.185,0.029,0.393,0.148,0.614,0.274c0.409,0.234,0.918,0.526,1.481,0.265  c0.213-0.098,0.306-0.351,0.207-0.563c-0.098-0.213-0.35-0.306-0.563-0.207c-0.155,0.072-0.369-0.04-0.703-0.231  c-0.265-0.152-0.564-0.323-0.905-0.377c-0.637-0.097-1.196,0.248-1.643,0.526l-0.098,0.061c-0.267,0.165-0.582,0.337-0.898,0.368  c-0.264,0.026-0.523-0.072-0.63-0.238c-0.032-0.05-0.057-0.106-0.083-0.161c-0.083-0.178-0.198-0.422-0.455-0.569  c-0.524-0.301-1.084,0.086-1.268,0.213l-0.466,0.322l-0.059-0.333c-0.023-0.13-0.106-0.243-0.224-0.304  c-0.117-0.06-0.257-0.063-0.377-0.006c-0.744,0.353-1.444,0.797-2.082,1.317c-0.181,0.148-0.208,0.416-0.06,0.597  c0.084,0.103,0.206,0.156,0.329,0.156C19.157,21.82,19.252,21.788,19.331,21.724z M23.07,13.957c-0.044-0.076-0.121-0.144-0.227-0.2  c-0.103-0.055-0.248-0.103-0.429-0.143c-0.109-0.024-0.192-0.046-0.247-0.067c-0.065-0.025-0.093-0.046-0.105-0.06  c-0.016-0.018-0.024-0.04-0.024-0.068c0-0.053,0.025-0.095,0.075-0.127c0.053-0.034,0.126-0.051,0.216-0.051  c0.093,0,0.188,0.016,0.282,0.047c0.094,0.032,0.185,0.078,0.269,0.137l0.023,0.016l0.179-0.41l-0.013-0.011  c-0.078-0.066-0.187-0.121-0.323-0.161c-0.082-0.024-0.169-0.041-0.26-0.051v-0.366h-0.358v0.373  c-0.088,0.014-0.168,0.037-0.238,0.068c-0.127,0.056-0.228,0.135-0.298,0.235c-0.071,0.101-0.107,0.215-0.107,0.339  c0,0.109,0.022,0.203,0.065,0.28c0.044,0.077,0.12,0.145,0.227,0.202c0.105,0.055,0.254,0.102,0.442,0.139  c0.145,0.031,0.244,0.062,0.296,0.093c0.047,0.028,0.07,0.063,0.07,0.104c0,0.047-0.025,0.082-0.077,0.109  c-0.056,0.029-0.138,0.043-0.245,0.043c-0.106,0-0.214-0.016-0.32-0.048c-0.106-0.032-0.207-0.078-0.301-0.138l-0.022-0.014  l-0.182,0.41l0.015,0.011c0.092,0.068,0.214,0.123,0.36,0.162c0.102,0.028,0.207,0.046,0.312,0.054v0.369h0.359v-0.378  c0.171-0.023,0.312-0.075,0.42-0.155c0.156-0.114,0.234-0.273,0.234-0.472C23.137,14.125,23.115,14.033,23.07,13.957z" />
</svg>
