

<svg version="1.1" xmlns="http://www.w3.org/2000/svg" xmlns:xlink="http://www.w3.org/1999/xlink" x="0px" y="0px" viewBox="0 0 33.84 34" enable-background="new 0 0 33.84 34" xml:space="preserve" focusable="false" role="presentation" aria-hidden="true">
<path id="PiggyBank" fill="#427730" d="M29.493,18.36L29.493,18.36c-0.153-0.304-0.527-0.428-0.835-0.277  c-0.479,0.233-0.909,0.488-1.281,0.758c-0.671-0.301-1.273-0.225-1.735-0.054c-0.658-3.939-4.831-6.987-9.869-6.987  c-1.374,0-2.702,0.222-3.952,0.66c-2.298-1.457-4.28-0.712-4.366-0.679c-0.167,0.065-0.291,0.207-0.333,0.381  c-0.042,0.174,0.004,0.357,0.122,0.492l1.396,1.579c-1.153,0.956-1.987,2.119-2.441,3.405H4.83c-0.302,0-0.548,0.245-0.548,0.548  v3.535c0,0.302,0.245,0.548,0.548,0.548h1.426c0.482,1.265,1.339,2.409,2.505,3.344l-0.899,2.684  c-0.056,0.167-0.028,0.351,0.075,0.494c0.103,0.143,0.268,0.228,0.444,0.228h3.294c0.235,0,0.444-0.151,0.519-0.374l0.376-1.124  c2.032,0.559,4.282,0.567,6.322,0.022l0.369,1.102c0.075,0.223,0.284,0.374,0.519,0.374h3.294c0.176,0,0.341-0.085,0.444-0.228  c0.103-0.143,0.131-0.327,0.075-0.494l-0.881-2.628c1.851-1.457,2.932-3.446,3.013-5.54c0.141-0.103,0.334-0.21,0.564-0.243  c-0.408,0.557-0.563,1.115-0.438,1.595c0.15,0.58,0.666,0.93,1.36,0.93c0.031,0,0.062-0.001,0.094-0.002  c0.65-0.033,1.148-0.415,1.331-1.023c0.166-0.55,0.06-1.196-0.274-1.721c0.257-0.169,0.54-0.329,0.844-0.477  c0.152-0.074,0.265-0.202,0.318-0.359C29.578,18.674,29.567,18.507,29.493,18.36z M21.749,25.025  c-0.195,0.14-0.276,0.391-0.199,0.618l0.764,2.28h-2.139l-0.411-1.227c-0.095-0.283-0.4-0.439-0.685-0.348  c-1.055,0.335-2.167,0.505-3.306,0.505c-1.168,0-2.306-0.178-3.383-0.529c-0.285-0.092-0.593,0.062-0.689,0.347l-0.42,1.253h-2.14  l0.782-2.333c0.076-0.226-0.003-0.474-0.195-0.615c-1.263-0.928-2.148-2.11-2.561-3.419c-0.072-0.228-0.283-0.383-0.522-0.383H5.377  v-2.44h1.222c0.244,0,0.459-0.162,0.526-0.397c0.396-1.38,1.307-2.621,2.634-3.587c0.125-0.091,0.205-0.23,0.222-0.383  c0.017-0.153-0.032-0.306-0.134-0.422l-1.139-1.288c0.666-0.024,1.651,0.112,2.728,0.862c0.148,0.103,0.338,0.127,0.507,0.063  c1.202-0.455,2.491-0.686,3.83-0.686c4.889,0,8.867,3.131,8.867,6.979C24.64,21.826,23.586,23.703,21.749,25.025z M27.439,21.039  c-0.031,0.103-0.071,0.132-0.185,0.138c-0.103,0.006-0.162-0.008-0.182-0.008c-0.006,0-0.008,0.001-0.008,0.004  c-0.023-0.09,0.051-0.34,0.327-0.672C27.462,20.687,27.484,20.892,27.439,21.039z M18.938,14.788c0,0.302-0.245,0.548-0.548,0.548  h-4.528c-0.302,0-0.548-0.245-0.548-0.548c0-0.302,0.245-0.548,0.548-0.548h4.528C18.693,14.24,18.938,14.485,18.938,14.788z   M16.064,11.257c1.73,0,3.138-1.408,3.138-3.138s-1.408-3.138-3.138-3.138s-3.138,1.408-3.138,3.138S14.333,11.257,16.064,11.257z   M16.064,6.076c1.126,0,2.043,0.916,2.043,2.043s-0.916,2.043-2.043,2.043s-2.043-0.916-2.043-2.043S14.937,6.076,16.064,6.076z   M16.915,8.539c0,0.199-0.079,0.358-0.234,0.472c-0.108,0.079-0.249,0.132-0.42,0.155v0.379h-0.358V9.176  c-0.105-0.008-0.21-0.026-0.313-0.054c-0.146-0.039-0.268-0.094-0.36-0.162l-0.015-0.011l0.182-0.41l0.022,0.014  c0.093,0.059,0.195,0.106,0.301,0.138c0.105,0.032,0.213,0.047,0.32,0.047c0.107,0,0.189-0.014,0.245-0.043  c0.052-0.027,0.077-0.063,0.077-0.109c0-0.042-0.023-0.076-0.07-0.104c-0.051-0.031-0.151-0.062-0.296-0.093  c-0.187-0.037-0.336-0.084-0.442-0.139c-0.107-0.057-0.184-0.125-0.227-0.202c-0.043-0.077-0.065-0.172-0.065-0.281  c0-0.125,0.036-0.239,0.107-0.339c0.07-0.1,0.171-0.179,0.298-0.236c0.07-0.031,0.15-0.053,0.238-0.067V6.752h0.358v0.366  c0.091,0.01,0.178,0.027,0.26,0.051c0.136,0.04,0.245,0.094,0.323,0.161l0.013,0.011l-0.179,0.41l-0.022-0.016  c-0.084-0.059-0.175-0.105-0.269-0.137c-0.094-0.032-0.189-0.047-0.282-0.047c-0.09,0-0.162,0.017-0.216,0.051  c-0.051,0.032-0.076,0.074-0.076,0.127c0,0.028,0.008,0.05,0.025,0.068c0.018,0.02,0.053,0.04,0.105,0.059  c0.054,0.021,0.137,0.043,0.247,0.067c0.181,0.04,0.326,0.087,0.429,0.142c0.106,0.056,0.182,0.124,0.227,0.2l0,0  C16.893,8.342,16.915,8.434,16.915,8.539z" />
</svg>
