<svg xmlns="http://www.w3.org/2000/svg" viewBox="0 0 104 104"><path d="M77.0036,53.3543,99.6761,38.4054q.03-.0195.0591-.04a1.57,1.57,0,0,0,.3644-2.19,1.6692,1.6692,0,0,0-2.2921-.4235L76.1814,50.0188V44.9331c0-.0093-.0032-.018-.0033-.0272l23.498-15.5321a1.5822,1.5822,0,0,0,.71-1.3454,1.5575,1.5575,0,0,0-.76-1.333L67.7353,6.8757a1.6814,1.6814,0,0,0-1.8188,0L42.0231,22.6841l-.041.0277c-.0165.0115-.0241.03-.04.042l-.2925-.1818a3.8868,3.8868,0,0,0-4.26.0747l-7.6613,5.1574a3.6639,3.6639,0,0,0-1.5322,4.0276L4.3768,47.6239a1.57,1.57,0,0,0,0,2.6783l31.8785,19.82a1.67,1.67,0,0,0,.897.2616,1.72,1.72,0,0,0,.9343-.2865L60.3605,55.36l.041-.0276a1.4978,1.4978,0,0,0,.1957-.2043V60.46a1.6977,1.6977,0,0,0-.6105.244L37.1274,75.8523,6.1458,56.5932a1.67,1.67,0,0,0-2.28.4859q-.0159.0243-.031.0492a1.57,1.57,0,0,0,.5294,2.1557L36.2553,79.1286a1.6566,1.6566,0,0,0,.897.2492,1.6937,1.6937,0,0,0,.9343-.274L60.5972,64.1911v4.9865c-.0079.005-.0171.005-.025.01L37.1274,84.8591,6.1458,65.5874a1.6817,1.6817,0,0,0-2.2174.4984l-.0039.0057a1.5945,1.5945,0,0,0,.44,2.2117L36.2553,88.1354a1.7682,1.7682,0,0,0,.897.2491,1.6937,1.6937,0,0,0,.9343-.274L60.5972,73.0727v5.2634l-23.47,15.53L6.1458,74.6066a1.67,1.67,0,0,0-2.28.4859l-.0175.0278a1.5821,1.5821,0,0,0,.5159,2.1771L36.2553,97.1421a1.6583,1.6583,0,0,0,.897.2492,1.6954,1.6954,0,0,0,.9343-.2741l23.4044-15.46a3.0537,3.0537,0,0,0,.8252.6229,3.2766,3.2766,0,0,0,1.4825.3488l-.0249-.0374a3.2272,3.2272,0,0,0,1.8437-.573l9.2185-6.3159a3.0773,3.0773,0,0,0,1.3454-2.4915v-1.573a1.7007,1.7007,0,0,0,.8222-.2707L99.6761,56.4188q.03-.0193.0591-.04a1.57,1.57,0,0,0,.3644-2.19,1.6692,1.6692,0,0,0-2.2921-.4235L76.1814,68.0322V62.6316a1.7,1.7,0,0,0,.8222-.2706L99.6761,47.4121q.03-.02.0591-.04a1.57,1.57,0,0,0,.3644-2.19,1.6692,1.6692,0,0,0-2.2921-.4235L76.1814,59.0255v-5.4A1.6,1.6,0,0,0,77.0036,53.3543Zm-10.1279-43.24L95.74,28.0657l-21.9175,14.5-5.1642-3.2093,14.998-9.7833a1.5821,1.5821,0,0,0,0-2.6784L67.91,17.1531a1.6814,1.6814,0,0,0-1.8188,0L50.2077,27.6547l-.041.0276c-.0453.0314-.0688.0793-.11.1145L44.9605,24.63Zm-.2118,30.3089h-.137c.02,0,.0389-.0082.059-.0091C66.6123,40.4155,66.6373,40.4236,66.6639,40.4235Zm-.9592-2.9024L53.0516,29.6579l13.9736-9.3157L79.8065,28.29,65.7421,37.496ZM37.1274,66.8332,8.2511,48.907,30.3433,34.3378l5.1189,3.18L20.2974,47.4a1.5823,1.5823,0,0,0,0,2.6784l15.8085,9.8165a1.67,1.67,0,0,0,.8969.2615,1.7186,1.7186,0,0,0,.9343-.2865L54.18,49.1438l5.3336,3.3129a1.66,1.66,0,0,0-1.0214.25ZM51.1531,47.2638,36.9779,56.6305,24.1841,48.6828l14.3125-9.2805ZM63.8984,79.5273V52.2581a1.57,1.57,0,0,0-.76-1.3455L31.6212,31.33a.5479.5479,0,0,1-.2491-.4359.5357.5357,0,0,1,.2366-.436l7.6614-5.17a.536.536,0,0,1,.3114-.0872.574.574,0,0,1,.2865.0747L72.6435,45.6119a1.6367,1.6367,0,0,0,.3114.2391V73.1242Z" fill="#2D822A" /></svg>
