<svg xmlns="http://www.w3.org/2000/svg" viewBox="0 0 104 104"><path d="M65.929,52.6165A18.9084,18.9084,0,1,0,47.1535,33.7106,18.8633,18.8633,0,0,0,65.929,52.6165Zm0-34.6982A15.7927,15.7927,0,1,1,50.2481,33.7106,15.754,15.754,0,0,1,65.929,17.9183ZM58.3778,29.6511c0-3.1152,2.215-5.1147,6.0028-5.5336V21.9563a1.5473,1.5473,0,1,1,3.0946,0V24.157A7.7094,7.7094,0,0,1,72.42,26.748a1.5651,1.5651,0,0,1-.2356,2.19A1.54,1.54,0,0,1,70.009,28.7a5.3492,5.3492,0,0,0-4.0772-1.5545l-.0029,0-.003,0c-2.0315.0006-4.4557.4367-4.4557,2.5053,0,2.0637,2.4276,2.4992,4.46,2.4992,6.57,0,7.55,3.52,7.55,5.619,0,1.9188-.8344,5.02-6.0049,5.535v2.3811a1.5473,1.5473,0,1,1-3.0946,0V43.2586A7.414,7.414,0,0,1,59.0867,40.18a1.5648,1.5648,0,0,1,.4859-2.15,1.5414,1.5414,0,0,1,2.1332.49,5.0707,5.0707,0,0,0,4.2242,1.75c4.4577,0,4.4577-1.6893,4.4577-2.5013,0-.8142,0-2.5034-4.4577-2.5034C61.2009,35.2659,58.3778,33.1664,58.3778,29.6511ZM98.5958,55.155A5.1443,5.1443,0,0,1,97.0812,62.16L70.0425,80.26a16.1386,16.1386,0,0,1-8.926,2.7095c-.29,0-.5785-.0084-.8688-.0253L27.7142,81.1608a1.5591,1.5591,0,0,1,.1683-3.1135l32.5356,1.786a12.9831,12.9831,0,0,0,7.91-2.1668L95.3688,59.5643a2.0321,2.0321,0,0,0,.6-2.7643l-1.2517-2.0279a2.0028,2.0028,0,0,0-2.4823-.81L72.1925,62.2759a1.5568,1.5568,0,0,1-1.1781-2.882l20.0418-8.3116a5.0823,5.0823,0,0,1,6.2879,2.0426Zm-78.029,8.6338a1.5427,1.5427,0,0,0,.6841-.5748,21.0882,21.0882,0,0,1,15.9732-9.0627c4.5083-.2776,8.2865,1.1234,10.6236,3.9171a1.5565,1.5565,0,0,0,1.1.5532l12.538.69A1.2172,1.2172,0,0,1,62.63,60.597l-.2315,4.2558a1.1952,1.1952,0,0,1-1.2748,1.1528L45.803,65.162a1.5822,1.5822,0,0,0-1.63,1.47,1.5583,1.5583,0,0,0,1.46,1.643l15.3232.8414c.0778.0043.1578.0063.2356.0063a4.3265,4.3265,0,0,0,4.2979-4.1021l.2314-4.2537a4.3327,4.3327,0,0,0-4.0644-4.5692L49.76,55.5439c-2.9936-3.2186-7.4786-4.7943-12.7168-4.5061a24.5115,24.5115,0,0,0-17.0941,8.73l-.2783-1.8118a1.5485,1.5485,0,0,0-1.7671-1.3022L5.9379,58.5175A1.5556,1.5556,0,0,0,4.6441,60.293L8.698,86.7006a1.5622,1.5622,0,0,0,.6142,1.0182,1.5342,1.5342,0,0,0,.9151.3008,1.26,1.26,0,0,0,.2357-.0189l11.97-1.8639a1.55,1.55,0,0,0,1.014-.6185,1.5885,1.5885,0,0,0,.28-1.1591ZM11.5211,84.6832,7.9406,61.3575,16.85,59.9712l3.5826,23.3256Z" fill="#ffffff" /></svg>
