<svg xmlns="http://www.w3.org/2000/svg" viewBox="0 0 104 104"><path d="M5.61,65.93c-4.79,1.1-5,3.31-5,7.43v8.41H103.39V73.36c0-4.12-.23-6.33-5-7.43h-.2c-4.18-1-8.14-1.87-9.23-4.26a4.32,4.32,0,0,1,.46-3.91c4-7.59,4.82-14.08,2.3-18.28a10.08,10.08,0,0,0-16.47.07c-2.53,4.25-1.69,10.72,2.36,18.2,1.37,2.51.89,4.47-1.42,5.84l-.32.2-.28-.27a9.71,9.71,0,0,0-4.64-2.16l-.29-.07c-5.27-1.23-10.27-2.38-11.61-5.35q-.945-2.07.56-4.87c5.14-9.7,6.18-18,2.94-23.39-2.09-3.47-5.94-5.45-10.56-5.45s-8.54,2-10.64,5.54c-3.25,5.46-2.18,13.73,3,23.29,1,1.9,1.22,3.49.6,4.86-1.34,3-6.26,4.11-11.47,5.31l-.47.11a9.8,9.8,0,0,0-4.62,2.13l-.27.26-.33-.19c-2.3-1.36-2.77-3.33-1.41-5.84,4-7.48,4.89-14,2.36-18.2a9.27,9.27,0,0,0-8.26-4.3,9.24,9.24,0,0,0-8.21,4.23c-2.52,4.2-1.71,10.69,2.3,18.28a4.29,4.29,0,0,1,.46,3.91c-1.09,2.39-5,3.3-9.23,4.26Zm71.9.62a6.43,6.43,0,0,0,3.6-3.58c.64-1.44,1.07-3.79-.6-6.86-3.37-6.22-4.27-11.8-2.42-14.91a5.85,5.85,0,0,1,5.2-2.7h0a6.52,6.52,0,0,1,5.53,2.65c1.88,3.11,1,8.58-2.39,15-1.63,3.07-1.19,5.42-.54,6.85.86,1.88,1.75,3.82,11.7,6.17l.26.06c2.12.48,2.18.77,2.18,3.74v5.47H77.44v-7.5a28.3712,28.3712,0,0,0-.2-3.87l-.06-.35ZM29.87,70.93c0-4.91.12-5.48,3.9-6.35,11.39-2.7,13-4.64,14.22-7.29.73-1.62,1.2-4.29-.71-7.81-4.54-8.37-5.66-15.66-3.07-20,2-3.41,5.74-3.92,7.78-3.92s5.69.5,7.71,3.85c2.58,4.28,1.48,11.61-3,20.11-1.87,3.54-1.38,6.2-.65,7.81,1,2.19,2,4.46,14.19,7.26,3.78.87,3.9,1.44,3.9,6.36v7.5H29.87ZM6.39,69.17c10-2.35,10.85-4.29,11.7-6.17.66-1.43,1.09-3.78-.54-6.85-3.4-6.43-4.26-11.89-2.39-15A6.52,6.52,0,0,1,20.7,38.5h0a5.85,5.85,0,0,1,5.2,2.7c1.86,3.11,1,8.69-2.42,14.91-1.66,3.07-1.24,5.42-.59,6.86a6.48,6.48,0,0,0,3.59,3.58l.33.17-.06.35a27.1217,27.1217,0,0,0-.2,3.86v7.51H3.92V72.99c0-3,.06-3.28,2.18-3.76Z" fill="#2D822A" /></svg>
