<svg xmlns="http://www.w3.org/2000/svg" viewBox="0 0 104 104"><path d="M102.4649,31.03a1.46,1.46,0,0,0-1.47-1.45h-98a1.46,1.46,0,0,0-1.46,1.46V72.96a1.46,1.46,0,0,0,1.46,1.46h98.01a1.46,1.46,0,0,0,1.46-1.46V31.03Zm-2.93,40.46H4.415v-39h95.12ZM10.599,55.556a1.42,1.42,0,0,1,1.296-1.296h78.9a1.42,1.42,0,1,1,0,2.83h-78.9A1.42,1.42,0,0,1,10.599,55.556ZM67.365,40.94c0-.775.5019-1.6128,1.84-1.8318V38.94a.69.69,0,0,1,1.38,0v.1721a2.9324,2.9324,0,0,1,1.33.6278.66.66,0,0,1,0,1,.69.69,0,0,1-.9755.0245L70.915,40.74a1.6253,1.6253,0,0,0-.925-.309.6468.6468,0,0,1-.095.019.659.659,0,0,1-.1322-.0264c-.4929.0175-1.0178.1287-1.0178.5364,0,.45.64.55,1.17.55,2.3,0,2.55,1.33,2.55,1.9,0,.5062-.2213,1.6225-1.88,1.8671V45.56a.68.68,0,0,1-.69.67h0a.68.68,0,0,1-.69-.67v-.303a2.991,2.991,0,0,1-1.2-.5372.67.67,0,0,1-.1428-.9367.6632.6632,0,0,1,.0528-.0633.7.7,0,0,1,.9846-.1028l.0154.0129a1.64,1.64,0,0,0,1,.3c1.17,0,1.17-.35,1.17-.54s0-.55-1.17-.55C68.035,42.84,67.365,41.84,67.365,40.94Zm6.5459,2.064A1.42,1.42,0,0,1,75.2068,41.47a1.4353,1.4353,0,0,1,.2382,0h16.32a1.42,1.42,0,1,1,0,2.83H75.445A1.42,1.42,0,0,1,73.9109,43.0041ZM10.599,41.176a1.42,1.42,0,0,1,1.296-1.296h16.3a1.42,1.42,0,0,1,0,2.83h-16.3A1.42,1.42,0,0,1,10.599,41.176Zm0,6.59a1.42,1.42,0,0,1,1.296-1.296h16.3a1.42,1.42,0,0,1,0,2.83h-16.3A1.42,1.42,0,0,1,10.599,47.766ZM93.045,64.28a1.41,1.41,0,0,1-.679,1.8749l-.0111.0051c-1.87.87-3.57-.11-4.93-.89a6.6317,6.6317,0,0,0-2.05-.91c-1.09-.18-2.34.61-3.54,1.36l-.34.21a9.86,9.86,0,0,1-4.21,1.63,5,5,0,0,1-4.75-2.07,7.9822,7.9822,0,0,1-.46-.87,2.5444,2.5444,0,0,0-.36-.64c-.07,0-.39,0-1.2.58l-3.37,2.33a1.41,1.41,0,0,1-2.19-.92l-.25-1.4a31.1841,31.1841,0,0,0-4.69,3.18,1.46,1.46,0,0,1-.9.29,1.42,1.42,0,0,1-.89-2.52,34.2434,34.2434,0,0,1,6.93-4.39,1.4294,1.4294,0,0,1,1.26,0,1.38,1.38,0,0,1,.74,1l.2,1.11,1.54-1.01c.62-.42,2.49-1.71,4.23-.71a3.8605,3.8605,0,0,1,1.52,1.9,4.3993,4.3993,0,0,0,.27.53,2.28,2.28,0,0,0,2.1.8,7.3881,7.3881,0,0,0,3-1.23l.33-.2c1.49-.93,3.35-2.08,5.48-1.76a8.92,8.92,0,0,1,3,1.26c1.12.64,1.83,1,2.35.77a1.4,1.4,0,0,1,1.8621.6728Z" fill="#ffffff" /></svg>
